<svg height="512" viewBox="0 0 128 128" width="512" xmlns="http://www.w3.org/2000/svg"><path d="m115.263 15.557h-97.526a8 8 0 0 0 -8 8v66.26a8 8 0 0 0 8 8h36.843l-1.806 12.088h-9.292a3.156 3.156 0 0 0 -3.157 3.156v.227a3.156 3.156 0 0 0 3.156 3.155h45.038a3.156 3.156 0 0 0 3.156-3.156v-.226a3.156 3.156 0 0 0 -3.156-3.156h-9.293l-1.806-12.088h37.843a7 7 0 0 0 7-7v-68.26a7 7 0 0 0 -7-7z" fill="#e6e7e8"/><rect fill="#6dc9f7" height="80.26" rx="7" width="110.526" x="6.737" y="12.557"/><path d="m110.263 12.557h-96.526a7 7 0 0 0 -7 7v59.6h110.526v-59.6a7 7 0 0 0 -7-7z" fill="#d4fbff"/><path d="m110.263 12.557h-96.526a7 7 0 0 0 -7 7v3.368a7.368 7.368 0 0 1 7.368-7.368h95.795a7.368 7.368 0 0 1 7.368 7.368v-3.368a7 7 0 0 0 -7.005-7z" fill="#fff"/><rect fill="#0089ef" height="4.539" rx="2.156" width="49.349" x="37.326" y="106.905"/><path d="m72.259 92.817h-20.518l-2.105 14.088h24.728z" fill="#0089ef"/><path d="m93.228 83.491a2.106 2.106 0 1 0 2.106 2.109 2.106 2.106 0 0 0 -2.106-2.109z" fill="#fff"/><path d="m100.6 83.491a2.106 2.106 0 1 0 2.1 2.109 2.105 2.105 0 0 0 -2.1-2.109z" fill="#0089ef"/><path d="m107.965 83.491a2.106 2.106 0 1 0 2.106 2.106 2.106 2.106 0 0 0 -2.106-2.106z" fill="#fa759e"/><rect fill="#fa759e" height="9.242" rx="4.284" width="28" x="48" y="51.133"/><path d="m67 54.528a1.226 1.226 0 1 0 1.226 1.226 1.226 1.226 0 0 0 -1.226-1.226z" fill="#ffd7e5"/><path d="m71.385 54.528a1.226 1.226 0 1 0 1.225 1.226 1.226 1.226 0 0 0 -1.225-1.226z" fill="#ffd7e5"/><rect fill="#fa759e" height="9.242" rx="4.284" width="28" x="48" y="41.891"/><path d="m67 45.286a1.226 1.226 0 1 0 1.226 1.226 1.226 1.226 0 0 0 -1.226-1.226z" fill="#ffd7e5"/><path d="m71.385 45.286a1.226 1.226 0 1 0 1.225 1.226 1.226 1.226 0 0 0 -1.225-1.226z" fill="#ffd7e5"/><rect fill="#fa759e" height="9.242" rx="4.284" width="28" x="48" y="32.649"/><path d="m67 36.045a1.226 1.226 0 1 0 1.23 1.225 1.225 1.225 0 0 0 -1.23-1.225z" fill="#ffd7e5"/><path d="m71.385 36.045a1.226 1.226 0 1 0 1.225 1.225 1.225 1.225 0 0 0 -1.225-1.225z" fill="#ffd7e5"/><path d="m85.75 20.91a3.562 3.562 0 1 0 3.562 3.562 3.561 3.561 0 0 0 -3.562-3.562z" fill="#0089ef"/><path d="m34.833 60.544a3.562 3.562 0 1 0 3.567 3.562 3.561 3.561 0 0 0 -3.567-3.562z" fill="#ffd7e5"/><path d="m85.75 66.494a3.562 3.562 0 1 0 3.562 3.561 3.561 3.561 0 0 0 -3.562-3.561z" fill="#6dc9f7"/><g fill="#3a2c60"><path d="m110.264 11.557h-96.527a8.009 8.009 0 0 0 -8 8v66.26a8.009 8.009 0 0 0 8 8h36.843l-1.806 12.088h-9.293a3.159 3.159 0 0 0 -3.156 3.156v.227a3.159 3.159 0 0 0 3.156 3.155h45.037a3.159 3.159 0 0 0 3.157-3.155v-.227a3.159 3.159 0 0 0 -3.157-3.156h-9.292l-1.806-12.088h36.844a8.009 8.009 0 0 0 8-8v-17.654a1 1 0 0 0 -2 0v9.992h-108.527v-58.6a6.007 6.007 0 0 1 6-6h96.527a6.007 6.007 0 0 1 6 6v29.463a1 1 0 0 0 2 0v-29.461a8.009 8.009 0 0 0 -8-8zm-24.589 97.5v.227a1.157 1.157 0 0 1 -1.157 1.155h-45.037a1.157 1.157 0 0 1 -1.156-1.155v-.227a1.157 1.157 0 0 1 1.156-1.156h45.037a1.157 1.157 0 0 1 1.157 1.16zm-12.475-3.152h-22.4l1.8-12.088h18.8zm43.06-25.75v5.662a6.007 6.007 0 0 1 -6 6h-96.523a6.007 6.007 0 0 1 -6-6v-5.662z"/><path d="m117.264 52.229a1 1 0 0 0 -1 1v10.877a1 1 0 0 0 2 0v-10.877a1 1 0 0 0 -1-1z"/><path d="m71.716 31.649h-19.432a5.29 5.29 0 0 0 -5.284 5.285v.673a5.269 5.269 0 0 0 2.215 4.284 5.27 5.27 0 0 0 -2.215 4.284v.674a5.27 5.27 0 0 0 2.215 4.284 5.269 5.269 0 0 0 -2.215 4.284v.673a5.29 5.29 0 0 0 5.284 5.285h19.432a5.29 5.29 0 0 0 5.284-5.285v-.673a5.269 5.269 0 0 0 -2.215-4.284 5.27 5.27 0 0 0 2.215-4.284v-.674a5.27 5.27 0 0 0 -2.215-4.284 5.269 5.269 0 0 0 2.215-4.284v-.673a5.29 5.29 0 0 0 -5.284-5.285zm3.284 23.768v.673a3.289 3.289 0 0 1 -3.284 3.285h-19.432a3.289 3.289 0 0 1 -3.284-3.285v-.673a3.288 3.288 0 0 1 3.284-3.284h19.432a3.288 3.288 0 0 1 3.284 3.284zm0-9.242v.674a3.288 3.288 0 0 1 -3.284 3.284h-19.432a3.288 3.288 0 0 1 -3.284-3.284v-.674a3.288 3.288 0 0 1 3.284-3.284h19.432a3.288 3.288 0 0 1 3.284 3.284zm0-8.568a3.288 3.288 0 0 1 -3.284 3.284h-19.432a3.288 3.288 0 0 1 -3.284-3.284v-.673a3.289 3.289 0 0 1 3.284-3.285h19.432a3.289 3.289 0 0 1 3.284 3.285z"/><path d="m87.839 46.286c2.859-6.872 3.416-13.624 1.374-18.88a4.53 4.53 0 0 0 -5.577-6.952c-5.513-3.557-13.5-3.386-21.638 0-9.374-3.908-18.556-3.552-23.976 1.868s-5.776 14.611-1.865 23.988a30.254 30.254 0 0 0 -2.549 13.422 4.547 4.547 0 1 0 2.842 8.625 13.937 13.937 0 0 0 1.572 1.926c3.037 3.037 7.254 4.487 12.026 4.487a31.443 31.443 0 0 0 11.952-2.613 31.452 31.452 0 0 0 11.952 2.613 18.368 18.368 0 0 0 8.3-1.829 4.541 4.541 0 1 0 6.4-6.381c2.715-5.426 2.312-12.789-.813-20.274zm.472-21.814a2.562 2.562 0 1 1 -2.561-2.562 2.564 2.564 0 0 1 2.561 2.562zm-6.253-2.657a4.518 4.518 0 0 0 -.87 2.657 4.553 4.553 0 0 0 6.381 4.178c1.495 4.263 1.143 9.6-.865 15.153a51.024 51.024 0 0 0 -22.221-22.211c6.659-2.412 13.017-2.455 17.575.223zm3.642 24.485a47.1 47.1 0 0 1 -9.756 13.95 47.221 47.221 0 0 1 -13.934 9.759 47.165 47.165 0 0 1 -13.95-9.764 47.208 47.208 0 0 1 -9.76-13.932 49.08 49.08 0 0 1 23.688-23.713 47.17 47.17 0 0 1 13.951 9.766 47.15 47.15 0 0 1 9.761 13.934zm-46.264-22.559c2.677-2.676 6.407-3.951 10.658-3.951a27.95 27.95 0 0 1 9.423 1.8 50.963 50.963 0 0 0 -22.228 22.235c-2.896-7.991-2.389-15.549 2.147-20.084zm-7.164 40.365a2.562 2.562 0 1 1 2.562 2.561 2.565 2.565 0 0 1 -2.562-2.561zm7.164 4.763a12.335 12.335 0 0 1 -1.324-1.605 4.539 4.539 0 0 0 -2.563-7.648 26.7 26.7 0 0 1 1.741-10.824 49.5 49.5 0 0 0 9.356 12.867 49.525 49.525 0 0 0 12.878 9.357c-7.992 2.898-15.552 2.389-20.088-2.147zm25.056 2.138a50.795 50.795 0 0 0 22.208-22.222c2.291 6.323 2.437 12.361.154 16.859a4.507 4.507 0 0 0 -1.1-.15 4.566 4.566 0 0 0 -4.562 4.561 4.515 4.515 0 0 0 .151 1.1c-4.498 2.283-10.532 2.139-16.851-.148zm21.258 1.61a2.562 2.562 0 1 1 2.561-2.562 2.565 2.565 0 0 1 -2.561 2.562z"/></g></svg>