<svg id="Capa_1" enable-background="new 0 0 512 512" height="512" viewBox="0 0 512 512" width="512" xmlns="http://www.w3.org/2000/svg"><g><path d="m417.639 504.5h-323.279c-4.183 0-7.574-3.391-7.574-7.574v-338.552h338.427v338.552c0 4.183-3.391 7.574-7.574 7.574z" fill="#f6f1f1"/><path d="m86.787 158.374v17.748h301.261c9.393 0 17.007 7.614 17.007 17.007v311.371h12.585c4.183 0 7.574-3.391 7.574-7.574v-338.552z" fill="#efe7e4"/><path d="m349.897 7.5h-255.537c-4.183 0-7.574 3.391-7.574 7.574v143.3h338.427v-103.604z" fill="#80b4fb"/><path d="m366.955 67.071 29.988 19.927c5.066 3.367 8.111 9.046 8.111 15.129v56.246h20.159v-103.603z" fill="#61a2f9"/><path d="m349.897 7.5 15.241 57.373c.904 3.404 4.416 5.413 7.808 4.467l52.268-14.571z" fill="#3b66c1"/><g><path d="m177.444 350.968v54.042h.188c2.664 10.008 36.722 17.925 78.368 17.925 41.647 0 75.704-7.917 78.368-17.925h.188v-54.042z" fill="#3b66c1"/><path d="m177.444 305.047v54.042h.188c2.664 10.008 36.722 17.925 78.368 17.925 41.647 0 75.704-7.917 78.368-17.925h.188v-54.042z" fill="#61a2f9"/><path d="m177.444 259.126v54.042h.188c2.664 10.008 36.722 17.925 78.368 17.925 41.647 0 75.704-7.917 78.368-17.925h.188v-54.042z" fill="#80b4fb"/><ellipse cx="256" cy="259.126" fill="#9dc6fb" rx="78.556" ry="19.187"/></g><g><path d="m429.201 48.417-75.316-47.27c-1.196-.75-2.578-1.147-3.988-1.147h-121.992c-4.143 0-7.5 3.357-7.5 7.5s3.357 7.5 7.5 7.5h116.223l13.76 51.799c.957 3.6 3.264 6.601 6.496 8.449 3.236 1.851 6.997 2.316 10.575 1.316l42.754-11.918v86.228h-323.426v-135.801c0-.04.033-.073.073-.073h103.558c4.143 0 7.5-3.357 7.5-7.5s-3.357-7.5-7.5-7.5h-103.558c-8.312 0-15.073 6.762-15.073 15.073v481.853c0 8.312 6.762 15.074 15.073 15.074h323.279c8.312 0 15.074-6.763 15.074-15.074v-37.772c0-4.143-3.357-7.5-7.5-7.5s-7.5 3.357-7.5 7.5v37.772c0 .04-.034.074-.074.074h-323.279c-.04 0-.073-.033-.073-.074v-331.052h323.427v263.293c0 4.143 3.357 7.5 7.5 7.5s7.5-3.357 7.5-7.5v-374.397c-.001-2.582-1.328-4.981-3.513-6.353zm-57.121 13.378-10.048-37.824 44.822 28.131z"/><path d="m278.044 40.207c-4.143 0-7.5 3.357-7.5 7.5v70.399c0 3.652 2.63 6.772 6.229 7.392 1.754.302 22.916.126 25.984.108 4.142-.023 7.481-3.4 7.458-7.542-.023-4.128-3.377-7.458-7.499-7.458h-.043c-5.972.033-12.396.057-17.13.06v-62.959c.001-4.143-3.356-7.5-7.499-7.5z"/><path d="m144.282 110.666c-7.366 0-14.468-2.983-18.996-7.98-2.783-3.07-7.526-3.302-10.594-.521-3.069 2.781-3.303 7.524-.521 10.594 7.325 8.083 18.581 12.908 30.111 12.908 14.214 0 26.142-9.021 28.361-21.452 1.661-9.303-2.628-21.48-19.647-27.758-8.864-3.271-17.101-6.835-19.404-7.845-1.812-1.385-2.685-3.557-2.348-5.904.215-1.491 1.278-5.132 6.521-6.711 10.65-3.213 20.387 4.553 20.597 4.724 3.169 2.634 7.877 2.217 10.533-.943 2.665-3.171 2.256-7.902-.915-10.567-.644-.54-15.958-13.174-34.541-7.576-9.234 2.782-15.765 10.041-17.043 18.943-1.382 9.631 4.167 18.659 10.451 21.454.405.181 10.07 4.482 20.957 8.498 7.182 2.649 10.853 6.677 10.072 11.049-.797 4.466-6.1 9.087-13.594 9.087z"/><path d="m219.953 40.207c-23.562 0-42.729 19.168-42.729 42.729s19.168 42.729 42.729 42.729c9.22 0 17.76-2.945 24.749-7.93l5.448 5.449c1.465 1.465 3.384 2.197 5.304 2.197 1.919 0 3.839-.732 5.303-2.196 2.93-2.929 2.93-7.678.001-10.606l-5.543-5.543c4.707-6.866 7.468-15.165 7.468-24.1-.001-23.561-19.169-42.729-42.73-42.729zm0 70.459c-15.29 0-27.729-12.439-27.729-27.729s12.439-27.729 27.729-27.729 27.729 12.439 27.729 27.729c0 4.78-1.216 9.282-3.355 13.212l-6.11-6.11c-2.929-2.929-7.678-2.93-10.606-.001-2.93 2.929-2.93 7.678-.001 10.606l6.261 6.261c-4.094 2.387-8.848 3.761-13.918 3.761z"/><path d="m224.792 241.395c-.567-4.104-4.362-6.967-8.457-6.402-30.782 4.257-46.391 12.377-46.391 24.134v145.883c0 1.541.465 2.974 1.262 4.165 3.267 6.884 12.898 12.087 29.312 15.859 15.149 3.482 34.854 5.4 55.482 5.4s40.333-1.918 55.483-5.4c16.409-3.771 26.04-8.973 29.309-15.854.799-1.192 1.265-2.627 1.265-4.17v-145.884c0-25.938-77.248-26.688-86.057-26.688-2.882 0-5.859.041-8.852.121-4.141.11-7.407 3.558-7.296 7.698s3.594 7.428 7.698 7.296c2.858-.076 5.701-.115 8.449-.115 18.356 0 36.041 1.6 49.798 4.504 12.193 2.574 18.077 5.49 20.376 7.184-2.299 1.693-8.183 4.608-20.376 7.183-13.757 2.904-31.441 4.504-49.798 4.504-18.355 0-36.041-1.6-49.797-4.504-12.195-2.574-18.079-5.49-20.376-7.184 3.051-2.245 12.238-6.463 32.562-9.273 4.105-.568 6.971-4.354 6.404-8.457zm102.264 115.649c-1.3 1.423-6.901 4.931-21.268 7.965-13.751 2.905-31.434 4.505-49.789 4.505s-36.037-1.6-49.789-4.505c-14.362-3.033-19.965-6.541-21.267-7.964v-28.692c4.26 1.821 9.443 3.43 15.573 4.839 15.149 3.482 34.854 5.4 55.482 5.4s40.333-1.918 55.483-5.4c6.13-1.409 11.313-3.018 15.573-4.839v28.691zm-21.267 53.886c-13.751 2.905-31.434 4.505-49.789 4.505s-36.037-1.6-49.789-4.505c-14.362-3.033-19.965-6.541-21.267-7.964v-28.692c4.26 1.821 9.443 3.43 15.573 4.839 15.149 3.482 34.854 5.4 55.482 5.4s40.333-1.918 55.483-5.4c6.13-1.409 11.313-3.018 15.573-4.839v28.691c-1.299 1.423-6.9 4.931-21.266 7.965zm-49.789-125.118c6.34 0 48.128-.389 71.057-10.275v35.586c-1.3 1.423-6.901 4.931-21.268 7.965-13.751 2.905-31.434 4.505-49.789 4.505s-36.037-1.6-49.789-4.505c-14.362-3.033-19.965-6.541-21.267-7.964v-35.587c22.928 9.887 64.716 10.275 71.056 10.275z"/></g></g></svg>